<?xml version="1.0" encoding="UTF-8" standalone="no"?><!DOCTYPE svg PUBLIC "-//W3C//DTD SVG 1.1//EN" "http://www.w3.org/Graphics/SVG/1.1/DTD/svg11.dtd"><svg width="100%" height="100%" viewBox="0 0 50 50" version="1.1" xmlns="http://www.w3.org/2000/svg" xmlns:xlink="http://www.w3.org/1999/xlink" xml:space="preserve" xmlns:serif="http://www.serif.com/" style="fill-rule:evenodd;clip-rule:evenodd;stroke-linecap:round;stroke-linejoin:round;"><g><path d="M25,45.787c11.404,0 20.787,-9.383 20.787,-20.787c0,-11.404 -9.383,-20.787 -20.787,-20.787c-11.404,-0 -20.787,9.383 -20.787,20.787c-0,11.404 9.383,20.787 20.787,20.787" style="fill:none;fill-rule:nonzero;stroke:#fff;stroke-width:3.73px;"/><path d="M14.446,28.198c1.599,5.757 7.996,9.274 13.752,7.675c3.518,-1.279 6.396,-4.157 7.356,-7.675m-17.75,-7.995c-0.438,-0 -0.799,-0.361 -0.799,-0.8c-0,-0.438 0.361,-0.799 0.799,-0.799m0,1.599c0.439,-0 0.8,-0.361 0.8,-0.8c-0,-0.438 -0.361,-0.799 -0.8,-0.799m14.392,1.599c-0.439,-0 -0.8,-0.361 -0.8,-0.8c0,-0.438 0.361,-0.799 0.8,-0.799m-0,1.599c0.438,-0 0.799,-0.361 0.799,-0.8c0,-0.438 -0.361,-0.799 -0.799,-0.799" style="fill:none;fill-rule:nonzero;stroke:#fff;stroke-width:3.73px;"/></g></svg>